<svg width="54" height="55" viewBox="0 0 54 55" fill="none" xmlns="http://www.w3.org/2000/svg">
<g clip-path="url(#clip0_453_49801)">
<path fill-rule="evenodd" clip-rule="evenodd" d="M11.0901 12.0313C15.3097 7.81169 21.0326 5.44116 27 5.44116C32.9674 5.44116 38.6903 7.81169 42.9099 12.0313C47.1295 16.2508 49.5 21.9738 49.5 27.9412C49.5 30.8959 48.918 33.8217 47.7873 36.5515C46.6566 39.2814 44.9992 41.7617 42.9099 43.8511C40.8206 45.9404 38.3402 47.5977 35.6104 48.7285C32.8806 49.8592 29.9547 50.4412 27 50.4412C24.0453 50.4412 21.1194 49.8592 18.3896 48.7285C15.6598 47.5977 13.1794 45.9404 11.0901 43.8511C9.00078 41.7617 7.34344 39.2814 6.21271 36.5515C5.08198 33.8217 4.5 30.8959 4.5 27.9412C4.5 21.9738 6.87053 16.2508 11.0901 12.0313ZM27 9.94116C22.2261 9.94116 17.6477 11.8376 14.2721 15.2132C10.8964 18.5889 9 23.1673 9 27.9412C9 30.305 9.46558 32.6456 10.3702 34.8295C11.2748 37.0133 12.6006 38.9976 14.2721 40.6691C15.9435 42.3405 17.9278 43.6664 20.1117 44.571C22.2956 45.4756 24.6362 45.9412 27 45.9412C29.3638 45.9412 31.7044 45.4756 33.8883 44.571C36.0722 43.6664 38.0565 42.3405 39.7279 40.6691C41.3994 38.9976 42.7253 37.0133 43.6298 34.8295C44.5344 32.6456 45 30.305 45 27.9412C45 23.1673 43.1036 18.5889 39.7279 15.2132C36.3523 11.8376 31.7739 9.94116 27 9.94116ZM24.75 21.1912C24.75 19.9485 25.7574 18.9412 27 18.9412H27.0225C28.2651 18.9412 29.2725 19.9485 29.2725 21.1912C29.2725 22.4338 28.2651 23.4412 27.0225 23.4412H27C25.7574 23.4412 24.75 22.4338 24.75 21.1912ZM24.75 25.6912C23.5074 25.6912 22.5 26.6985 22.5 27.9412C22.5 29.1838 23.5074 30.1912 24.75 30.1912V36.9412C24.75 38.1838 25.7574 39.1912 27 39.1912H29.25C30.4926 39.1912 31.5 38.1838 31.5 36.9412C31.5 35.6985 30.4926 34.6912 29.25 34.6912V27.9412C29.25 26.6985 28.2426 25.6912 27 25.6912H24.75Z" fill="#828282"/>
</g>
<defs>
<clipPath id="clip0_453_49801">
<rect width="54" height="54" fill="white" transform="translate(0 0.941162)"/>
</clipPath>
</defs>
</svg>
