<svg width="24" height="24" viewBox="0 0 24 24" fill="none" xmlns="http://www.w3.org/2000/svg">
<g clip-path="url(#clip0_69_993)">
<path fill-rule="evenodd" clip-rule="evenodd" d="M5 3C4.46957 3 3.96086 3.21071 3.58579 3.58579C3.21071 3.96086 3 4.46957 3 5V6C3 6.55228 3.44772 7 4 7C4.55228 7 5 6.55228 5 6L5 5L6 5C6.55228 5 7 4.55228 7 4C7 3.44772 6.55228 3 6 3H5ZM11 3C10.4477 3 10 3.44772 10 4C10 4.55228 10.4477 5 11 5H13C13.5523 5 14 4.55228 14 4C14 3.44772 13.5523 3 13 3H11ZM18 3C17.4477 3 17 3.44772 17 4C17 4.55228 17.4477 5 18 5L19 5V6C19 6.55228 19.4477 7 20 7C20.5523 7 21 6.55228 21 6V5C21 4.46957 20.7893 3.96086 20.4142 3.58579C20.0391 3.21071 19.5304 3 19 3H18ZM5 11C5 10.4477 4.55228 10 4 10C3.44772 10 3 10.4477 3 11V13C3 13.5523 3.44772 14 4 14C4.55228 14 5 13.5523 5 13V11ZM21 11C21 10.4477 20.5523 10 20 10C19.4477 10 19 10.4477 19 11V13C19 13.5523 19.4477 14 20 14C20.5523 14 21 13.5523 21 13V11ZM5 18C5 17.4477 4.55228 17 4 17C3.44772 17 3 17.4477 3 18V19C3 19.5304 3.21071 20.0391 3.58579 20.4142C3.96086 20.7893 4.46957 21 5 21H6C6.55228 21 7 20.5523 7 20C7 19.4477 6.55228 19 6 19H5V18ZM21 18C21 17.4477 20.5523 17 20 17C19.4477 17 19 17.4477 19 18V19H18C17.4477 19 17 19.4477 17 20C17 20.5523 17.4477 21 18 21H19C19.5304 21 20.0391 20.7893 20.4142 20.4142C20.7893 20.0391 21 19.5304 21 19V18ZM11 19C10.4477 19 10 19.4477 10 20C10 20.5523 10.4477 21 11 21H13C13.5523 21 14 20.5523 14 20C14 19.4477 13.5523 19 13 19H11ZM12 8C12.5523 8 13 8.44772 13 9V11H15C15.5523 11 16 11.4477 16 12C16 12.5523 15.5523 13 15 13H13V15C13 15.5523 12.5523 16 12 16C11.4477 16 11 15.5523 11 15V13H9C8.44772 13 8 12.5523 8 12C8 11.4477 8.44772 11 9 11H11V9C11 8.44772 11.4477 8 12 8Z" fill="white"/>
</g>
<defs>
<clipPath id="clip0_69_993">
<rect width="24" height="24" fill="white"/>
</clipPath>
</defs>
</svg>
