<svg width="24" height="24" viewBox="0 0 24 24" fill="none" xmlns="http://www.w3.org/2000/svg">
<g clip-path="url(#clip0_69_992)">
<path fill-rule="evenodd" clip-rule="evenodd" d="M5 4C4.73478 4 4.48043 4.10536 4.29289 4.29289C4.10536 4.48043 4 4.73478 4 5V9H9V4H5ZM10 2H5C4.20435 2 3.44129 2.31607 2.87868 2.87868C2.31607 3.44129 2 4.20435 2 5V10V19C2 19.7957 2.31607 20.5587 2.87868 21.1213C3.44129 21.6839 4.20435 22 5 22H10H12.5C13.0523 22 13.5 21.5523 13.5 21C13.5 20.4477 13.0523 20 12.5 20H11V11H20V12.5C20 13.0523 20.4477 13.5 21 13.5C21.5523 13.5 22 13.0523 22 12.5V10V5C22 4.20435 21.6839 3.44129 21.1213 2.87868C20.5587 2.31607 19.7957 2 19 2H10ZM11 4V9H20V5C20 4.73478 19.8946 4.48043 19.7071 4.29289C19.5196 4.10536 19.2652 4 19 4H11ZM9 11H4V19C4 19.2652 4.10536 19.5196 4.29289 19.7071C4.48043 19.8946 4.73478 20 5 20H9V11ZM15 19C15 18.4477 15.4477 18 16 18H19.5858L18.2929 16.7071C17.9024 16.3166 17.9024 15.6834 18.2929 15.2929C18.6834 14.9024 19.3166 14.9024 19.7071 15.2929L22.7071 18.2929C23.0976 18.6834 23.0976 19.3166 22.7071 19.7071L19.7071 22.7071C19.3166 23.0976 18.6834 23.0976 18.2929 22.7071C17.9024 22.3166 17.9024 21.6834 18.2929 21.2929L19.5858 20H16C15.4477 20 15 19.5523 15 19Z" fill="white"/>
</g>
<defs>
<clipPath id="clip0_69_992">
<rect width="24" height="24" fill="white"/>
</clipPath>
</defs>
</svg>
