<svg width="24" height="25" viewBox="0 0 24 25" fill="none" xmlns="http://www.w3.org/2000/svg">
<g clip-path="url(#clip0_69_942)">
<path fill-rule="evenodd" clip-rule="evenodd" d="M14.2228 2.74798C13.6844 2.62501 13.1482 2.9618 13.0253 3.50022C12.9023 4.03864 13.2391 4.5748 13.7775 4.69777C15.5448 5.10141 17.1228 6.09311 18.2529 7.51052C19.3831 8.92792 19.9986 10.687 19.9986 12.4999C19.9986 14.3127 19.3831 16.0718 18.2529 17.4892C17.1228 18.9066 15.5448 19.8983 13.7775 20.302C13.2391 20.4249 12.9023 20.9611 13.0253 21.4995C13.1482 22.038 13.6844 22.3747 14.2228 22.2518C16.4318 21.7473 18.4041 20.5077 19.8167 18.7361C21.2293 16.9645 21.9986 14.7657 21.9986 12.4999C21.9986 10.234 21.2293 8.03527 19.8167 6.26365C18.4041 4.49202 16.4318 3.25249 14.2228 2.74798ZM8.01872 19.4412C7.53997 19.1659 6.92866 19.3308 6.65332 19.8095C6.37797 20.2883 6.54287 20.8996 7.02163 21.1749C7.88183 21.6697 8.81124 22.0328 9.77897 22.2523C10.3176 22.3745 10.8532 22.0369 10.9754 21.4983C11.0976 20.9597 10.76 20.424 10.2214 20.3019C9.44833 20.1265 8.70588 19.8364 8.01872 19.4412ZM3.07449 14.0403C3.60505 13.8869 4.15949 14.1927 4.31287 14.7232C4.55025 15.5444 4.91832 16.3219 5.40294 17.026C5.71608 17.4809 5.60112 18.1036 5.14618 18.4167C4.69125 18.7298 4.06861 18.6149 3.75547 18.1599C3.1491 17.279 2.68857 16.3061 2.39155 15.2787C2.23817 14.7481 2.54393 14.1937 3.07449 14.0403ZM5.06788 8.50466C5.33555 8.02158 5.16093 7.41297 4.67785 7.1453C4.19477 6.87762 3.58616 7.05224 3.31848 7.53533L3.14948 7.84033L3.13829 7.86111C2.65818 8.77799 2.31585 9.77834 2.13807 10.8339C2.04635 11.3785 2.41348 11.8944 2.9581 11.9861C3.50271 12.0778 4.01857 11.7107 4.11029 11.1661C4.25186 10.3255 4.52366 9.52939 4.90477 8.79904L5.06788 8.50466ZM10.9753 3.50128C11.0977 4.03983 10.7603 4.57563 10.2217 4.69801C9.23777 4.92162 8.30533 5.33041 7.47417 5.90257C7.01925 6.21573 6.3966 6.10082 6.08344 5.64591C5.77028 5.19099 5.8852 4.56834 6.34011 4.25518C7.38026 3.53914 8.54716 3.02757 9.77854 2.74774C10.3171 2.62535 10.8529 2.96272 10.9753 3.50128ZM13.0002 8.49998C13.0002 7.94769 12.5524 7.49998 12.0002 7.49998C11.4479 7.49998 11.0002 7.94769 11.0002 8.49998V12.5C11.0002 12.7652 11.1055 13.0195 11.2931 13.2071L14.2931 16.2071C14.6836 16.5976 15.3167 16.5976 15.7073 16.2071C16.0978 15.8166 16.0978 15.1834 15.7073 14.7929L13.0002 12.0858V8.49998Z" fill="#9ca3af"/>
</g>
<defs>
<clipPath id="clip0_69_942">
<rect width="24" height="24" fill="white" transform="translate(0 0.5)"/>
</clipPath>
</defs>
</svg>
